<svg xmlns="http://www.w3.org/2000/svg" width="38" height="38" viewBox="0 0 38 38">
    <path fill="#000" fill-rule="nonzero" d="M26 37c3.312-.26 5.866-.915 8-3 2.085-2.134 2.74-4.688 3-8 .022-2.055-.001-4.516 0-7-.001-2.484.022-4.945 0-7-.26-3.312-.915-5.866-3-8-2.134-2.085-4.688-2.74-8-3-2.055-.022-4.516.001-7 0-2.484.001-4.945-.022-7 0-3.312.26-5.866.915-8 3-2.085 2.134-2.74 4.688-3 8 .013 1.434 0 3.284 0 5v2c.001 2.484-.022 4.945 0 7 .26 3.312.915 5.866 3 8 2.134 2.085 4.688 2.74 8 3 2.055.022 4.516-.001 7 0 2.484-.001 4.945.022 7 0zM8 33c-.603-.09-1.221-.495-2-1-.505-.779-.91-1.397-1-2-1.193-2.63-.98-8.337-1-11 .02-2.663-.193-8.37 1-11 .09-.603.495-1.221 1-2 .779-.505 1.397-.91 2-1 2.63-1.193 8.337-.98 11-1 2.663.02 8.37-.193 11 1 .603.09 1.221.495 2 1 .505.779.91 1.397 1 2 1.193 2.63.98 8.337 1 11-.02 2.663.193 8.37-1 11-.09.603-.495 1.221-1 2-.779.505-1.397.91-2 1-2.63 1.193-8.337.98-11 1-2.663-.02-8.37.193-11-1zm20-22c1.109 0 2-.891 2-2s-.891-2-2-2-2 .891-2 2 .891 2 2 2zm-9 17c4.98 0 9-4.02 9-9s-4.02-9-9-9-9 4.02-9 9 4.02 9 9 9zm0-3c-3.304 0-6-2.696-6-6s2.696-6 6-6 6 2.696 6 6-2.696 6-6 6z"/>
</svg>
