<svg xmlns="http://www.w3.org/2000/svg" width="40" height="39" viewBox="0 0 40 39">
    <path fill="#000" fill-rule="nonzero" d="M26.067 38.998l.261-.03C34.271 36.313 40 28.816 40 19.99 40 8.954 31.042 0 20 0S0 8.954 0 19.991c0 8.825 5.73 16.322 13.672 18.977 1.015.182 1.38-.443 1.38-.963 0-.495-.026-2.057-.026-3.723 0 0-5.573 1.198-6.745-2.369 0 0-.911-2.316-2.213-2.915 0 0-1.823-1.25.13-1.223 0 0 1.98.156 3.073 2.056 1.745 3.072 4.661 2.187 5.807 1.666.182-1.276.703-2.16 1.276-2.681-4.453-.495-9.114-2.213-9.114-9.866 0-2.186.78-3.956 2.057-5.362-.208-.52-.886-2.551.208-5.31C11.172 7.758 15 10.334 15 10.334a18.838 18.838 0 0 1 10 0s3.828-2.577 5.495-2.056c1.094 2.759.416 4.79.208 5.31 1.276 1.406 2.057 3.176 2.057 5.362 0 7.68-4.687 9.371-9.14 9.866.729.625 1.354 1.822 1.354 3.696 0 2.681-.026 4.842-.026 5.493 0 .52.364 1.145 1.38.963l-.26.03z"/>
</svg>
