<svg xmlns="http://www.w3.org/2000/svg" width="1240" height="618" viewBox="0 0 1240 618">
    <g fill="none" fill-rule="evenodd">
        <path stroke="#CF5D75" stroke-width="5" d="M0 541.5h750c120 0 124-539 148-539s35.5 613 58.5 613S987 361 1012.5 361s25.5 99 55.5 99 30-200.5 47-200.5 17 282 60 282h65"/>
        <path fill="#FFF" d="M1 560v20H0v-20h1zm60 0v20h-1v-20h1zm60 0v20h-1v-20h1zm60 0v20h-1v-20h1zm60 0v20h-1v-20h1zm60 0v20h-1v-20h1zm60 0v20h-1v-20h1zm60 0v20h-1v-20h1zm60 0v20h-1v-20h1zm60 0v20h-1v-20h1zm60 0v20h-1v-20h1zm60 0v20h-1v-20h1zm60 0v20h-1v-20h1zm60 0v20h-1v-20h1zm60 0v20h-1v-20h1zm60 0v20h-1v-20h1zm60 0v20h-1v-20h1zm60 0v20h-1v-20h1zm60 0v20h-1v-20h1zm60 0v20h-1v-20h1zm60 0v20h-1v-20h1zm-1074 0v10h-1v-10h1zm6 0v10h-1v-10h1zm6 0v10h-1v-10h1zm6 0v10h-1v-10h1zm6 0v10h-1v-10h1zm6 0v10h-1v-10h1zm6 0v10h-1v-10h1zm6 0v10h-1v-10h1zm6 0v10h-1v-10h1zM7 560v10H6v-10h1zm180 0v10h-1v-10h1zm6 0v10h-1v-10h1zm6 0v10h-1v-10h1zm6 0v10h-1v-10h1zm6 0v10h-1v-10h1zm6 0v10h-1v-10h1zm6 0v10h-1v-10h1zm6 0v10h-1v-10h1zm6 0v10h-1v-10h1zm-222 0v10h-1v-10h1zm234 0v10h-1v-10h1zm6 0v10h-1v-10h1zm6 0v10h-1v-10h1zm6 0v10h-1v-10h1zm6 0v10h-1v-10h1zm6 0v10h-1v-10h1zm6 0v10h-1v-10h1zm6 0v10h-1v-10h1zm6 0v10h-1v-10h1zm-276 0v10h-1v-10h1zm288 0v10h-1v-10h1zm6 0v10h-1v-10h1zm6 0v10h-1v-10h1zm6 0v10h-1v-10h1zm6 0v10h-1v-10h1zm6 0v10h-1v-10h1zm6 0v10h-1v-10h1zm6 0v10h-1v-10h1zm6 0v10h-1v-10h1zm-330 0v10h-1v-10h1zm342 0v10h-1v-10h1zm6 0v10h-1v-10h1zm6 0v10h-1v-10h1zm6 0v10h-1v-10h1zm6 0v10h-1v-10h1zm6 0v10h-1v-10h1zm6 0v10h-1v-10h1zm6 0v10h-1v-10h1zm6 0v10h-1v-10h1zm-384 0v10h-1v-10h1zm396 0v10h-1v-10h1zm6 0v10h-1v-10h1zm6 0v10h-1v-10h1zm6 0v10h-1v-10h1zm6 0v10h-1v-10h1zm6 0v10h-1v-10h1zm6 0v10h-1v-10h1zm6 0v10h-1v-10h1zm6 0v10h-1v-10h1zm-438 0v10h-1v-10h1zm450 0v10h-1v-10h1zm6 0v10h-1v-10h1zm6 0v10h-1v-10h1zm6 0v10h-1v-10h1zm6 0v10h-1v-10h1zm6 0v10h-1v-10h1zm6 0v10h-1v-10h1zm6 0v10h-1v-10h1zm6 0v10h-1v-10h1zm-492 0v10h-1v-10h1zm504 0v10h-1v-10h1zm6 0v10h-1v-10h1zm6 0v10h-1v-10h1zm6 0v10h-1v-10h1zm6 0v10h-1v-10h1zm6 0v10h-1v-10h1zm6 0v10h-1v-10h1zm6 0v10h-1v-10h1zm6 0v10h-1v-10h1zm-546 0v10h-1v-10h1zm558 0v10h-1v-10h1zm6 0v10h-1v-10h1zm6 0v10h-1v-10h1zm6 0v10h-1v-10h1zm6 0v10h-1v-10h1zm6 0v10h-1v-10h1zm6 0v10h-1v-10h1zm6 0v10h-1v-10h1zm6 0v10h-1v-10h1zm-600 0v10h-1v-10h1zm612 0v10h-1v-10h1zm6 0v10h-1v-10h1zm6 0v10h-1v-10h1zm6 0v10h-1v-10h1zm6 0v10h-1v-10h1zm6 0v10h-1v-10h1zm6 0v10h-1v-10h1zm6 0v10h-1v-10h1zm6 0v10h-1v-10h1zm-648 0v10h-1v-10h1zm660 0v10h-1v-10h1zm6 0v10h-1v-10h1zm6 0v10h-1v-10h1zm6 0v10h-1v-10h1zm6 0v10h-1v-10h1zm6 0v10h-1v-10h1zm6 0v10h-1v-10h1zm6 0v10h-1v-10h1zm6 0v10h-1v-10h1zm-702 0v10h-1v-10h1zm714 0v10h-1v-10h1zm6 0v10h-1v-10h1zm6 0v10h-1v-10h1zm6 0v10h-1v-10h1zm6 0v10h-1v-10h1zm6 0v10h-1v-10h1zm6 0v10h-1v-10h1zm6 0v10h-1v-10h1zm6 0v10h-1v-10h1zm-756 0v10h-1v-10h1zm768 0v10h-1v-10h1zm6 0v10h-1v-10h1zm6 0v10h-1v-10h1zm6 0v10h-1v-10h1zm6 0v10h-1v-10h1zm6 0v10h-1v-10h1zm6 0v10h-1v-10h1zm6 0v10h-1v-10h1zm6 0v10h-1v-10h1zm-810 0v10h-1v-10h1zm822 0v10h-1v-10h1zm6 0v10h-1v-10h1zm6 0v10h-1v-10h1zm6 0v10h-1v-10h1zm6 0v10h-1v-10h1zm6 0v10h-1v-10h1zm6 0v10h-1v-10h1zm6 0v10h-1v-10h1zm6 0v10h-1v-10h1zm-864 0v10h-1v-10h1zm876 0v10h-1v-10h1zm6 0v10h-1v-10h1zm6 0v10h-1v-10h1zm6 0v10h-1v-10h1zm6 0v10h-1v-10h1zm6 0v10h-1v-10h1zm6 0v10h-1v-10h1zm6 0v10h-1v-10h1zm6 0v10h-1v-10h1zm-918 0v10h-1v-10h1zm930 0v10h-1v-10h1zm6 0v10h-1v-10h1zm6 0v10h-1v-10h1zm6 0v10h-1v-10h1zm6 0v10h-1v-10h1zm6 0v10h-1v-10h1zm6 0v10h-1v-10h1zm6 0v10h-1v-10h1zm6 0v10h-1v-10h1zm-972 0v10h-1v-10h1zm984 0v10h-1v-10h1zm6 0v10h-1v-10h1zm6 0v10h-1v-10h1zm6 0v10h-1v-10h1zm6 0v10h-1v-10h1zm6 0v10h-1v-10h1zm6 0v10h-1v-10h1zm6 0v10h-1v-10h1zm6 0v10h-1v-10h1zm-1026 0v10h-1v-10h1zm1038 0v10h-1v-10h1zm6 0v10h-1v-10h1zm6 0v10h-1v-10h1zm6 0v10h-1v-10h1zm6 0v10h-1v-10h1zm6 0v10h-1v-10h1zm6 0v10h-1v-10h1zm6 0v10h-1v-10h1zm6 0v10h-1v-10h1zm-1080 0v10h-1v-10h1zm1092 0v10h-1v-10h1zm6 0v10h-1v-10h1zm6 0v10h-1v-10h1zm6 0v10h-1v-10h1zm6 0v10h-1v-10h1zm6 0v10h-1v-10h1z"/>
    </g>
</svg>
